<?xml version="1.0" encoding="UTF-8"?>
<svg width="200" height="200" viewBox="0 0 200 200" xmlns="http://www.w3.org/2000/svg">
    <!-- Фон -->
    <circle cx="100" cy="100" r="90" fill="#FFA07A"/>
    
    <!-- Тело кота -->
    <path d="M60,100 C60,60 140,60 140,100 C140,140 60,140 60,100" fill="#FF8C00"/>
    
    <!-- Голова -->
    <circle cx="100" cy="80" r="30" fill="#FF8C00"/>
    
    <!-- Уши -->
    <path d="M80,60 L90,40 L100,60" fill="#FF8C00"/>
    <path d="M120,60 L110,40 L100,60" fill="#FF8C00"/>
    
    <!-- Глаза -->
    <circle cx="90" cy="75" r="5" fill="black"/>
    <circle cx="110" cy="75" r="5" fill="black"/>
    
    <!-- Нос -->
    <path d="M98,85 L100,90 L102,85" fill="pink"/>
    
    <!-- Каска -->
    <path d="M70,70 L130,70 L120,50 L80,50 Z" fill="#FFD700"/>
    
    <!-- Лапы -->
    <circle cx="70" cy="130" r="15" fill="#FF8C00"/>
    <circle cx="130" cy="130" r="15" fill="#FF8C00"/>
</svg> 