<?xml version="1.0" encoding="UTF-8"?>
<svg width="200" height="200" viewBox="0 0 200 200" xmlns="http://www.w3.org/2000/svg">
    <!-- Фон -->
    <circle cx="100" cy="100" r="90" fill="#483D8B"/>
    
    <!-- Тело кота -->
    <path d="M60,100 C60,60 140,60 140,100 C140,140 60,140 60,100" fill="#6A5ACD"/>
    
    <!-- Голова -->
    <circle cx="100" cy="80" r="30" fill="#6A5ACD"/>
    
    <!-- Уши -->
    <path d="M80,60 L90,40 L100,60" fill="#6A5ACD"/>
    <path d="M120,60 L110,40 L100,60" fill="#6A5ACD"/>
    
    <!-- Глаза -->
    <circle cx="90" cy="75" r="5" fill="#E6E6FA"/>
    <circle cx="110" cy="75" r="5" fill="#E6E6FA"/>
    <circle cx="90" cy="75" r="2" fill="#FFD700"/>
    <circle cx="110" cy="75" r="2" fill="#FFD700"/>
    
    <!-- Нос -->
    <path d="M98,85 L100,90 L102,85" fill="pink"/>
    
    <!-- Звезды вокруг -->
    <circle cx="60" cy="60" r="3" fill="#FFD700"/>
    <circle cx="140" cy="60" r="3" fill="#FFD700"/>
    <circle cx="100" cy="40" r="3" fill="#FFD700"/>
    
    <!-- Магический ореол -->
    <circle cx="100" cy="80" r="40" fill="none" stroke="#FFD700" stroke-width="2" stroke-dasharray="5,5"/>
    
    <!-- Лапы -->
    <circle cx="70" cy="130" r="15" fill="#6A5ACD"/>
    <circle cx="130" cy="130" r="15" fill="#6A5ACD"/>
</svg> 